<svg xmlns="http://www.w3.org/2000/svg" width="55.533" height="75.489" viewBox="0 0 55.533 75.489"><g id="quality_white_quality" transform="translate(-73.295 -128.33)"><path id="Path_68" data-name="Path 68" d="M128.31,156.666a7.972,7.972,0,0,0-.892-7.356l-1.05-1.521a4.49,4.49,0,0,1-.755-2l-.224-1.835a7.968,7.968,0,0,0-4.208-6.1L119.545,137a4.488,4.488,0,0,1-1.605-1.42l-1.048-1.522a7.973,7.973,0,0,0-6.56-3.442h-1.85a4.493,4.493,0,0,1-2.079-.512l-1.636-.859a7.966,7.966,0,0,0-7.408,0l-1.636.859a4.5,4.5,0,0,1-2.079.512H91.794a7.974,7.974,0,0,0-6.559,3.441l-1.05,1.522a4.5,4.5,0,0,1-1.6,1.42l-1.636.86a7.968,7.968,0,0,0-4.208,6.1l-.223,1.834a4.489,4.489,0,0,1-.759,2l-1.05,1.524a7.97,7.97,0,0,0-.894,7.354l.655,1.733a4.488,4.488,0,0,1,.259,2.129l-.223,1.834a7.969,7.969,0,0,0,2.626,6.931l1.384,1.227a4.483,4.483,0,0,1,1.217,1.755l.656,1.733A7.971,7.971,0,0,0,84.07,178.2l-7.222,17.6a1.749,1.749,0,0,0,2.26,2.3l7.962-3.149,3.466,7.831a1.749,1.749,0,0,0,1.6,1.042h.026a1.749,1.749,0,0,0,1.594-1.084l7.31-17.838,7.312,17.836a1.745,1.745,0,0,0,1.59,1.085h.024a1.749,1.749,0,0,0,1.6-1.041l3.466-7.831,7.957,3.147a1.748,1.748,0,0,0,2.259-2.288l-7.222-17.619a7.968,7.968,0,0,0,3.683-4.195l.658-1.733a4.493,4.493,0,0,1,1.215-1.762l1.384-1.225a7.973,7.973,0,0,0,2.628-6.931l-.223-1.834a4.494,4.494,0,0,1,.257-2.126l.656-1.727Zm-5.635,9.992-1.384,1.225a8,8,0,0,0-2.165,3.14l-.656,1.733a4.472,4.472,0,0,1-3.113,2.756l-1.793.443a8,8,0,0,0-3.378,1.772l-1.384,1.227a4.477,4.477,0,0,1-4.037.99l-1.793-.442a7.989,7.989,0,0,0-3.816,0l-1.795.442a4.468,4.468,0,0,1-4.041-.99l-1.384-1.225a8,8,0,0,0-3.378-1.774l-1.795-.442a4.476,4.476,0,0,1-3.109-2.759L83,171.028a8.01,8.01,0,0,0-2.167-3.14l-1.387-1.23a4.472,4.472,0,0,1-1.474-3.888l.223-1.834a8.009,8.009,0,0,0-.46-3.787l-.656-1.727a4.477,4.477,0,0,1,.511-4.124l1.048-1.52A8,8,0,0,0,80,146.211l.223-1.834a4.474,4.474,0,0,1,2.362-3.42l1.636-.859a7.993,7.993,0,0,0,2.854-2.534l1.036-1.521a4.472,4.472,0,0,1,3.682-1.937h1.849a8,8,0,0,0,3.7-.913l1.636-.859a4.475,4.475,0,0,1,4.159,0l1.636.859a8.009,8.009,0,0,0,3.7.916h1.848a4.475,4.475,0,0,1,3.682,1.934l1.051,1.519a8.009,8.009,0,0,0,2.855,2.53l1.631.861a4.472,4.472,0,0,1,2.362,3.419l.223,1.835a8,8,0,0,0,1.355,3.567l1.047,1.524a4.473,4.473,0,0,1,.5,4.129l-.655,1.733a8,8,0,0,0-.46,3.786l.223,1.834A4.474,4.474,0,0,1,122.675,166.657Zm-7.9,24.415a1.746,1.746,0,0,0-2.24.918l-2.482,5.609-5.817-14.193a7.966,7.966,0,0,0,6.886-1.838l1.384-1.227a4.475,4.475,0,0,1,1.9-.99l.323-.079,5.76,14.056Zm-25.178.92a1.748,1.748,0,0,0-2.24-.92l-5.708,2.259,5.763-14.058.323.078a4.491,4.491,0,0,1,1.9,1l1.384,1.225a7.935,7.935,0,0,0,6.875,1.838l-5.817,14.2L89.6,191.994Z"></path><path id="Path_69" data-name="Path 69" d="M161.921,234.961a19.171,19.171,0,1,0-19.171-19.171h0A19.193,19.193,0,0,0,161.921,234.961Zm0-34.845a15.678,15.678,0,1,1-15.674,15.676h0a15.693,15.693,0,0,1,15.674-15.677Z" transform="translate(-60.858 -59.838)"></path><path id="Path_70" data-name="Path 70" d="M219.36,290.724h16.31a1.749,1.749,0,0,0,1.748-1.749V278.622a1.751,1.751,0,0,0-.7-1.4l-8.155-6.149a1.748,1.748,0,0,0-2.1,0l-8.155,6.149a1.751,1.751,0,0,0-.694,1.4v10.353a1.748,1.748,0,0,0,1.746,1.749h0Zm1.749-11.231,6.406-4.827,6.406,4.827v7.737H229.38v-3.475a.827.827,0,0,0-.827-.826h-2.077a.827.827,0,0,0-.827.826v3.48h-4.541Z" transform="translate(-126.453 -124.771)"></path></g></svg>