<svg xmlns="http://www.w3.org/2000/svg" width="75.118" height="75.101" viewBox="0 0 75.118 75.101"><g id="support_white-04" transform="translate(-25.596 -42.499)"><g id="Group_67" data-name="Group 67" transform="translate(25.596 42.499)"><path id="Path_84" data-name="Path 84" d="M128.52,224.962v4.25a1.4,1.4,0,0,0-.123.332,24.268,24.268,0,0,1-3.022,9.545,1.3,1.3,0,0,0-.058.884c.684,2.538,1.4,5.071,2.1,7.6.327,1.182.648,2.366,1,3.639-.264-.06-.4-.083-.538-.121-3.5-.965-7-1.921-10.487-2.909a1.727,1.727,0,0,0-1.434.154,22.985,22.985,0,0,1-15.765,2.641c-9.539-1.844-15.917-7.489-19.088-16.694-.164-.476-.317-.693-.868-.733a28.155,28.155,0,0,1-12.083-3.594,1.478,1.478,0,0,0-1.229-.141q-4.041,1.139-8.091,2.246c-1.7.472-3.406.939-5.207,1.434.058-.269.083-.427.126-.581,1.165-4.222,2.34-8.443,3.485-12.673a1.706,1.706,0,0,0-.054-1.149,27.529,27.529,0,0,1-2.9-20.712c2.9-11.274,10.156-18.389,21.433-21.335,1.357-.355,2.766-.5,4.149-.745h4.542a3.748,3.748,0,0,0,.555.138,27.321,27.321,0,0,1,13.13,4.733,28.34,28.34,0,0,1,12.64,21.9c.043.512.238.67.691.824q13.122,4.471,16.512,17.919C128.19,222.846,128.324,223.908,128.52,224.962Zm-68.6,2.2c2.591-.713,5.071-1.383,7.547-2.091a1.644,1.644,0,0,1,1.49.206,23.86,23.86,0,0,0,17.856,3.456A24.247,24.247,0,1,0,57.9,204.508a23.71,23.71,0,0,0,3.95,13.7,1.411,1.411,0,0,1,.2,1.288C61.331,222,60.65,224.518,59.92,227.167Zm50.827-18.846c-2.717,14.182-11.1,22.561-25.216,25.234.041.14.078.281.128.418a19.92,19.92,0,0,0,18.108,12.951,19.514,19.514,0,0,0,11.475-3.324,1.524,1.524,0,0,1,1.424-.206c1.764.522,3.546.985,5.416,1.5-.509-1.844-.965-3.608-1.484-5.349a1.69,1.69,0,0,1,.232-1.557,19.718,19.718,0,0,0-1.028-23.229A19.486,19.486,0,0,0,110.747,208.321Z" transform="translate(-53.403 -176.3)"></path><path id="Path_85" data-name="Path 85" d="M194.218,283.99h-4.456c0-1.719-.015-3.42.021-5.121,0-.212.266-.446.453-.615,1.537-1.427,3.1-2.838,4.639-4.262a4.395,4.395,0,0,0-2.317-7.635,4.414,4.414,0,0,0-4.9,3.688c-.023.189-.04.38-.063.607H183.2a8.314,8.314,0,0,1,1.045-4.113,8.8,8.8,0,0,1,16.429,2.647,8.559,8.559,0,0,1-2.5,7.764c-1.12,1.122-2.345,2.139-3.482,3.245a1.635,1.635,0,0,0-.439.986C194.18,282.106,194.218,283.031,194.218,283.99Z" transform="translate(-163.254 -248.714)"></path><path id="Path_86" data-name="Path 86" d="M230.622,439.424H226.28V435.1h4.342Z" transform="translate(-199.717 -395.335)"></path></g></g></svg>