<svg xmlns="http://www.w3.org/2000/svg" width="65.776" height="74.998" viewBox="0 0 65.776 74.998"><g id="timelydelivery_white_timely_delicery" data-name="timelydelivery_white_timely delicery" transform="translate(-42.533 -159.715)"><path id="Path_81" data-name="Path 81" d="M79.663,518.23c-1.671-.413-3.356-.77-5.012-1.238-4.1-1.149-8.172-2.428-12.3-3.488a55.139,55.139,0,0,0-6.69-1.124,6.871,6.871,0,0,0-4.757,1.344l-1.1.729c-1.46.963-2.658.524-3.108-1.151q-1.761-6.551-3.513-13.109c-.189-.7-.39-1.407-.563-2.116a1.741,1.741,0,0,1,.507-1.94,44.376,44.376,0,0,1,10.9-6.483,16.3,16.3,0,0,1,12.05-.091c5.13,1.926,10.3,3.727,15.417,5.676a28.8,28.8,0,0,1,4.267,2.217,6.852,6.852,0,0,1,2.732,2.982c1.019-.525,2-1.045,2.994-1.539,3.023-1.5,6.03-3,9.059-4.466a6.522,6.522,0,0,1,4.767-.5,3.828,3.828,0,0,1,2.4,5.793,10.966,10.966,0,0,1-2.348,2.673A138.517,138.517,0,0,1,84.7,516.977c-.855.492-1.789.838-2.7,1.25ZM49.6,510.4a10.427,10.427,0,0,1,7.547-1.458,86.988,86.988,0,0,1,8.646,1.788c4.286,1.116,8.534,2.387,12.783,3.634a5.27,5.27,0,0,0,4.854-.711.586.586,0,0,1,.063-.038A151.254,151.254,0,0,0,100.58,501.8c1.317-1.043,2.533-2.215,3.765-3.361.205-.19.249-.55.368-.835-.3-.117-.643-.382-.907-.323a11.826,11.826,0,0,0-2.761.825Q93.425,502,85.869,506a8.621,8.621,0,0,1-5.405,1.2,25.778,25.778,0,0,1-4.3-1.1c-2.688-.907-5.151-2.461-8.077-2.706a1.79,1.79,0,0,1-1.1-.948,1.756,1.756,0,0,1,1.879-2.476,15.854,15.854,0,0,1,4.986,1.347c1.739.7,3.473,1.417,5.242,2.033a5.485,5.485,0,0,0,5.469-.8c.783-.611.866-.941.045-1.5a19.313,19.313,0,0,0-3.887-2.285c-5.55-2.116-11.15-4.1-16.737-6.127a11.085,11.085,0,0,0-7.03-.2,32.268,32.268,0,0,0-10.324,5.523.849.849,0,0,0-.138.741c.665,2.568,1.361,5.127,2.048,7.688C48.884,507.7,49.233,509.01,49.6,510.4Z" transform="translate(0 -283.518)"></path><path id="Path_82" data-name="Path 82" d="M206.748,163.225c-.922,0-1.747.007-2.571,0a1.756,1.756,0,1,1,.026-3.505q4.252-.01,8.5,0a1.759,1.759,0,1,1,0,3.508c-.8.008-1.6,0-2.478,0q.065,1.267.116,2.31a42.716,42.716,0,0,1,4.595,1.087c8.438,2.975,13.552,8.864,14.777,17.745a21.462,21.462,0,1,1-25.842-18.287,18.646,18.646,0,0,1,2.311-.345c.435-.041.6-.186.57-.629C206.721,164.519,206.748,163.932,206.748,163.225Zm19.634,23.839a17.948,17.948,0,1,0-17.842,17.923,17.947,17.947,0,0,0,17.842-17.923Z" transform="translate(-124.566 0)"></path><path id="Path_83" data-name="Path 83" d="M293.5,263.335c0,1.977-.008,3.953,0,5.929a2.021,2.021,0,0,1-.8,1.715c-2.065,1.6-4.129,3.205-6.194,4.788a1.719,1.719,0,0,1-2.34.021,1.771,1.771,0,0,1,.2-2.834c1.692-1.325,3.385-2.644,5.1-3.936a1.14,1.14,0,0,0,.5-1.037q-.026-5.344,0-10.688c0-1.227.629-1.952,1.667-1.995a1.752,1.752,0,0,1,1.865,1.887C293.507,259.236,293.5,261.285,293.5,263.335Z" transform="translate(-207.835 -82.434)"></path></g></svg>